# xmcd CD database file
#
# Track frame offsets:
#	150
#	22327
#	39590
#	70270
#
# Disc length: 1389 seconds
#
# Revision: 1
# Processed by: cddbd v1.5.2PL0 Copyright (c) Steve Scherf et al.
# Submitted via: CDex 1.70beta2
#
DISCID=34056b04
DTITLE=レミオロメン - 蒼の世界
DYEAR=2005
DGENRE=Rock
TTITLE0=蒼の世界
TTITLE1=息継ぎ
TTITLE2=午後の低気圧
TTITLE3=データ
EXTD=YEAR: 2005
EXTT0=
EXTT1=
EXTT2=
EXTT3=
PLAYORDER=
